<svg id="レイヤー_1" data-name="レイヤー 1" xmlns="http://www.w3.org/2000/svg" viewBox="0 0 1024 1024"><defs><style>.cls-1{fill:#fff;}.cls-2{fill:#db5e5e;}.cls-3{fill:#5e79dd;}.cls-4{fill:#bfbfbf;}</style></defs><title>アートボード 113094813</title><polygon class="cls-1" points="478.4 300.76 458.61 320.55 414.11 320.55 433.9 300.76 478.4 300.76"/><polygon class="cls-1" points="567.38 300.76 547.59 320.55 503.09 320.55 522.88 300.76 567.38 300.76"/><polygon class="cls-1" points="654.84 300.76 635.05 320.55 592.09 320.55 611.88 300.76 654.84 300.76"/><polygon class="cls-1" points="743.84 300.76 724.05 320.55 679.55 320.55 699.34 300.76 743.84 300.76"/><polygon class="cls-1" points="763.25 325.83 763.25 370.33 744.02 389.56 744.02 345.06 763.25 325.83"/><polygon class="cls-1" points="763.25 414.81 763.25 459.31 744.02 478.54 744.02 434.04 763.25 414.81"/><polygon class="cls-1" points="763.25 503.81 763.25 553.91 744.02 573.14 744.02 523.04 763.25 503.81"/><polygon class="cls-1" points="763.25 598.41 763.25 638.6 723.06 638.6 744.02 617.64 763.25 598.41"/><polygon class="cls-1" points="699.52 617.64 678.56 638.6 628.45 638.6 649.42 617.64 699.52 617.64"/><polygon class="cls-1" points="604.92 617.64 583.96 638.6 539.47 638.6 560.43 617.64 604.92 617.64"/><polygon class="cls-1" points="515.93 617.64 494.97 638.6 450.49 638.6 471.45 617.64 515.93 617.64"/><polygon class="cls-1" points="426.95 617.64 405.99 638.6 361.5 638.6 382.46 617.64 426.95 617.64"/><polygon class="cls-1" points="337.97 617.64 317.01 638.6 274.03 638.6 294.99 617.64 337.97 617.64"/><polygon class="cls-1" points="280.64 543.01 280.64 587.5 263.25 604.89 263.25 560.4 280.64 543.01"/><polygon class="cls-1" points="280.64 454.03 280.64 498.51 263.25 515.9 263.25 471.42 280.64 454.03"/><polygon class="cls-1" points="744.02 573.14 744.02 617.64 699.52 617.64 649.42 617.64 604.92 617.64 560.43 617.64 515.93 617.64 471.45 617.64 426.95 617.64 382.46 617.64 337.97 617.64 294.99 617.64 280.64 617.64 280.64 587.5 280.64 543.01 280.64 498.51 280.64 454.03 280.64 409.53 280.64 365.04 280.64 320.55 325.13 320.55 369.63 320.55 414.11 320.55 458.61 320.55 503.09 320.55 547.59 320.55 592.09 320.55 635.05 320.55 679.55 320.55 724.05 320.55 744.02 320.55 744.02 345.06 744.02 389.56 744.02 434.04 744.02 478.54 744.02 523.04 744.02 573.14"/><polygon class="cls-1" points="280.64 365.04 280.64 409.53 263.25 426.92 263.25 382.43 280.64 365.04"/><polygon class="cls-1" points="389.42 300.76 369.63 320.55 325.13 320.55 344.92 300.76 389.42 300.76"/><polygon class="cls-1" points="300.43 300.76 280.64 320.55 263.25 337.94 263.25 300.76 300.43 300.76"/><polygon class="cls-2" points="471.45 617.64 450.49 638.6 405.99 638.6 426.95 617.64 471.45 617.64"/><polygon class="cls-2" points="649.42 617.64 628.45 638.6 583.96 638.6 604.92 617.64 649.42 617.64"/><polygon class="cls-2" points="763.25 459.31 763.25 503.81 744.02 523.04 744.02 478.54 763.25 459.31"/><polygon class="cls-2" points="763.25 300.76 763.25 325.83 744.02 345.06 744.02 320.55 724.05 320.55 743.84 300.76 763.25 300.76"/><polygon class="cls-2" points="611.88 300.76 592.09 320.55 547.59 320.55 567.38 300.76 611.88 300.76"/><polygon class="cls-2" points="294.99 617.64 274.03 638.6 263.25 638.6 263.25 604.89 280.64 587.5 280.64 617.64 294.99 617.64"/><polygon class="cls-2" points="280.64 409.53 280.64 454.03 263.25 471.42 263.25 426.92 280.64 409.53"/><polygon class="cls-2" points="433.9 300.76 414.11 320.55 369.63 320.55 389.42 300.76 433.9 300.76"/><polygon class="cls-3" points="699.34 300.76 679.55 320.55 635.05 320.55 654.84 300.76 699.34 300.76"/><polygon class="cls-3" points="763.25 370.33 763.25 414.81 744.02 434.04 744.02 389.56 763.25 370.33"/><polygon class="cls-3" points="763.25 553.91 763.25 598.41 744.02 617.64 744.02 573.14 763.25 553.91"/><polygon class="cls-3" points="744.02 617.64 723.06 638.6 678.56 638.6 699.52 617.64 744.02 617.64"/><polygon class="cls-3" points="560.43 617.64 539.47 638.6 494.97 638.6 515.93 617.64 560.43 617.64"/><polygon class="cls-3" points="382.46 617.64 361.5 638.6 317.01 638.6 337.97 617.64 382.46 617.64"/><polygon class="cls-3" points="280.64 498.51 280.64 543.01 263.25 560.4 263.25 515.9 280.64 498.51"/><polygon class="cls-3" points="522.88 300.76 503.09 320.55 458.61 320.55 478.4 300.76 522.88 300.76"/><polygon class="cls-3" points="280.64 320.55 280.64 365.04 263.25 382.43 263.25 337.94 280.64 320.55"/><polygon class="cls-3" points="344.92 300.76 325.13 320.55 280.64 320.55 300.43 300.76 344.92 300.76"/><path class="cls-4" d="M728.63,421.86a3,3,0,0,1,3-3v-4a3,3,0,0,1,0-6v-4a3,3,0,0,1,0-6v-4a3,3,0,0,1,0-6v-4a3,3,0,0,1,0-6v-4a3,3,0,0,1,0-6v-4a3,3,0,0,1,0-6v-4a3,3,0,0,1,0-6v-4a3,3,0,0,1,0-6v-4a3,3,0,0,1-2.12-.88,2.82,2.82,0,0,1-.38-.46,2.36,2.36,0,0,1-.28-.52,2.78,2.78,0,0,1-.17-.56,2.84,2.84,0,0,1,0-.58h-4a3,3,0,1,1-6,0h-4a3,3,0,1,1-6,0h-4a3,3,0,0,1-6,0h-4a3,3,0,0,1-6,0h-4a3,3,0,0,1-6,0h-4a3,3,0,0,1-6,0h-4a3,3,0,0,1-6,0h-4a3,3,0,0,1-6,0h-4a3,3,0,0,1-6,0h-4a2.87,2.87,0,0,1-.07.58,2.78,2.78,0,0,1-.17.56,4.25,4.25,0,0,1-.27.52,3.38,3.38,0,0,1-.37.46,3.24,3.24,0,0,1-.46.37,3,3,0,0,1-.53.28,3.5,3.5,0,0,1-.55.17,3,3,0,0,1-.58.06v4a3,3,0,0,1,0,6v4a3,3,0,0,1,0,6v4a3,3,0,0,1,0,6v4a3,3,0,0,1,0,6v4a3,3,0,0,1,0,6v4a3,3,0,0,1,0,6v4a3,3,0,0,1,0,6v4a3,3,0,0,1,0,6v4a3,3,0,0,1,0,6v4a2.9,2.9,0,0,1,.58.05,2.19,2.19,0,0,1,.55.17,2.4,2.4,0,0,1,.53.27,4.14,4.14,0,0,1,.46.37,3,3,0,0,1,.87,2.12h4a3,3,0,0,1,6,0h4a3,3,0,0,1,6,0h4a3,3,0,0,1,6,0h4a3,3,0,0,1,6,0h4a3,3,0,0,1,6,0h4a3,3,0,0,1,6,0h4a3,3,0,0,1,6,0h4a3,3,0,0,1,6,0h4a3,3,0,0,1,6,0h4a3,3,0,0,1,3-3v-4A3,3,0,0,1,728.63,421.86Z"/></svg>