<svg xmlns="http://www.w3.org/2000/svg" xmlns:xlink="http://www.w3.org/1999/xlink" viewBox="0 0 400.5 580.61"><defs><style>.cls-1{fill:none;stroke-linecap:round;stroke-miterlimit:10;stroke-width:20px;stroke:url(#名称未設定グラデーション_57);}</style><linearGradient id="名称未設定グラデーション_57" x1="200.25" x2="200.25" y2="580.61" gradientUnits="userSpaceOnUse"><stop offset="0" stop-color="#00bf7c"/><stop offset="0.99" stop-color="#ea8c00"/></linearGradient></defs><title>アセット 1</title><g id="レイヤー_2" data-name="レイヤー 2"><g id="レイヤー_3" data-name="レイヤー 3"><path class="cls-1" d="M370.5,363H135.08a20,20,0,0,1-20-20V239.77a20,20,0,0,1,20-20H370.5a20,20,0,0,1,20,20V343A20,20,0,0,1,370.5,363ZM285.42,133.21V30a20,20,0,0,0-20-20H30A20,20,0,0,0,10,30V133.21a20,20,0,0,0,20,20H265.42A20,20,0,0,0,285.42,133.21Zm-148,22.31,103.34,62m44.67,333.08V447.4a20,20,0,0,0-20-20H30a20,20,0,0,0-20,20V550.61a20,20,0,0,0,20,20H265.42A20,20,0,0,0,285.42,550.61Zm-148-124.67,103.34-62"/></g></g></svg>