<svg xmlns="http://www.w3.org/2000/svg" xmlns:xlink="http://www.w3.org/1999/xlink" viewBox="0 0 486.52 82.12"><defs><style>.cls-1{opacity:0.2;}.cls-2{fill:url(#名称未設定グラデーション_57);}</style><linearGradient id="名称未設定グラデーション_57" y1="39.12" x2="486.52" y2="39.12" gradientUnits="userSpaceOnUse"><stop offset="0" stop-color="#00bf7c"/><stop offset="0.99" stop-color="#ea8c00"/></linearGradient></defs><title>アセット 2</title><g id="レイヤー_2" data-name="レイヤー 2"><g id="レイヤー_3" data-name="レイヤー 3"><g class="cls-1"><path d="M26.89,72.23H44.74a5,5,0,0,1,3.56,1.44,4.81,4.81,0,0,1,0,7,4.92,4.92,0,0,1-3.56,1.45H26.26A14.29,14.29,0,0,1,19,79.88a13.37,13.37,0,0,1-5.24-5L2.3,52.8A22.32,22.32,0,0,1,0,43a20.07,20.07,0,0,1,2.18-9.6L13.72,11.59A15.27,15.27,0,0,1,18.84,6.2a12.08,12.08,0,0,1,6.71-2.32H45.1a4.72,4.72,0,0,1,3.5,1.47A4.8,4.8,0,0,1,50,8.82a5,5,0,0,1-1.44,3.56,4.68,4.68,0,0,1-3.5,1.5H26.27c-1.57,0-2.85.93-3.83,2.78l-11,20.47a12,12,0,0,0-1.29,5.72A12.87,12.87,0,0,0,11.59,49L22.06,69.11A5,5,0,0,0,26.89,72.23Z"/><path d="M72.47,77.17V8.82a4.6,4.6,0,0,1,1.44-3.41,5,5,0,0,1,8.45,3.53v25l8-5.18Q95.73,25.3,100,25.3h6.13a14.3,14.3,0,0,1,10.42,4.33A14.93,14.93,0,0,1,121,40.14l1.24,37a4.53,4.53,0,0,1-1.42,3.5,4.84,4.84,0,0,1-3.53,1.45,4.62,4.62,0,0,1-3.47-1.5,5.11,5.11,0,0,1-1.47-3.45L111.15,40a5,5,0,0,0-1.53-3.47,4.82,4.82,0,0,0-3.53-1.47h-5.54a7.66,7.66,0,0,0-4.12,1.47L82.36,45.73V77.17a4.95,4.95,0,1,1-9.89,0Z"/><path d="M160.15,46.44h19.4a22.59,22.59,0,0,1,4.6.7l-.12-7a4.92,4.92,0,0,0-4.95-4.94H160.26a5.06,5.06,0,0,1-5-5,5,5,0,0,1,5-4.95h18.8a14.35,14.35,0,0,1,10.47,4.3A14.92,14.92,0,0,1,194,40.14l1.24,37a4.72,4.72,0,0,1-1.47,3.5,4.79,4.79,0,0,1-3.48,1.45,4.91,4.91,0,0,1-3.59-1.45,4.72,4.72,0,0,1-1.47-3.5l-8.37,5H160.15a14.89,14.89,0,0,1-15-15V61.39a15,15,0,0,1,15-15Zm24.74,19.25-.3-4.18A5,5,0,0,0,183.12,58a4.74,4.74,0,0,0-3.48-1.41H160.13a4.92,4.92,0,0,0-4.94,4.94V67A5,5,0,0,0,160.13,72h14Z"/><path d="M253,82.12h-9.89a14.52,14.52,0,0,1-10.54-4.36,14.2,14.2,0,0,1-4.41-10.48V35.2h-5.07a4.83,4.83,0,0,1-3.5-1.42,5,5,0,0,1,3.5-8.48h5.19V13.18a4.89,4.89,0,0,1,8.38-3.48,4.7,4.7,0,0,1,1.51,3.48V25.3H258a4.94,4.94,0,0,1,3.48,8.45A4.78,4.78,0,0,1,258,35.2H238V67.28a4.69,4.69,0,0,0,1.5,3.47,4.89,4.89,0,0,0,3.56,1.48h9.66c2.62,0,4.37-1.43,5.24-4.27s2.53-4.27,5-4.27a4.72,4.72,0,0,1,3.56,1.44,5,5,0,0,1,1.38,3.62q0,4.48-4.2,8.92A14.14,14.14,0,0,1,253,82.12Z"/><path d="M291.06,77.17V30.25a5,5,0,0,1,1.44-3.56,4.88,4.88,0,0,1,7,0A4.94,4.94,0,0,1,301,30.25v6.18L309,29.54q5-4.23,9.77-4.24H326a14.89,14.89,0,0,1,14.84,14.84v2.65a4.91,4.91,0,0,1-1.45,3.59,4.72,4.72,0,0,1-3.5,1.47A4.92,4.92,0,0,1,331,42.91V40.14a4.93,4.93,0,0,0-5-4.94h-6.42A7.41,7.41,0,0,0,315,37.37L301,49.56V77.17a4.72,4.72,0,0,1-1.47,3.5,4.93,4.93,0,0,1-8.42-3.5Z"/><path d="M413.69,43.91v12a5,5,0,0,1-4.94,4.94h-35v2.89A5.35,5.35,0,0,0,376,68l2.89,2.41a7.42,7.42,0,0,0,4.47,1.83h25.44a4.8,4.8,0,0,1,3.47,1.44,5,5,0,0,1-3.47,8.45H382.67A15.41,15.41,0,0,1,377.22,81,14.17,14.17,0,0,1,373,78.76l-4.41-3.89a12.39,12.39,0,0,1-3.45-4.59,12.88,12.88,0,0,1-1.38-5.41V42.2a13.72,13.72,0,0,1,1.5-5.24,13.57,13.57,0,0,1,3.8-5.12l4.12-3.24a13.94,13.94,0,0,1,9-3.3h13.9q5.24,0,9.89,4.36l3.71,3.53Q413.7,36.79,413.69,43.91Zm-39.8-.77V50.8h30V43.91a5.28,5.28,0,0,0-1.71-4.24l-2.88-2.53a6.7,6.7,0,0,0-4-1.83H382.9a6.34,6.34,0,0,0-4.18,1.59l-2.88,2.42A4.57,4.57,0,0,0,373.89,43.14Z"/><path d="M486.52,43.91v12a5,5,0,0,1-4.95,4.94h-35v2.89a5.37,5.37,0,0,0,2.18,4.3l2.88,2.41a7.42,7.42,0,0,0,4.48,1.83h25.43A4.8,4.8,0,0,1,485,73.67a5,5,0,0,1-3.47,8.45H455.49A15.45,15.45,0,0,1,450,81a14.44,14.44,0,0,1-4.21-2.27l-4.41-3.89A12.61,12.61,0,0,1,438,70.28a12.88,12.88,0,0,1-1.38-5.41V42.2a13.72,13.72,0,0,1,1.5-5.24,13.57,13.57,0,0,1,3.8-5.12L446,28.6a14,14,0,0,1,9-3.3h13.89q5.25,0,9.89,4.36l3.71,3.53Q486.52,36.79,486.52,43.91Zm-39.8-.77V50.8h30V43.91a5.31,5.31,0,0,0-1.7-4.24l-2.89-2.53a6.67,6.67,0,0,0-4-1.83H455.73a6.3,6.3,0,0,0-4.18,1.59l-2.89,2.42A4.58,4.58,0,0,0,446.72,43.14Z"/></g><path class="cls-2" d="M26.89,68.35H44.74a5,5,0,0,1,3.56,1.44,4.82,4.82,0,0,1,0,7,5,5,0,0,1-3.56,1.44H26.26A14.2,14.2,0,0,1,19,76a13.43,13.43,0,0,1-5.24-5L2.3,48.92A22.29,22.29,0,0,1,0,39.15a20.07,20.07,0,0,1,2.18-9.6L13.72,7.71a15.25,15.25,0,0,1,5.12-5.38A12.1,12.1,0,0,1,25.55,0H45.1a4.72,4.72,0,0,1,3.5,1.47A4.81,4.81,0,0,1,50,5,5,5,0,0,1,48.6,8.51,4.68,4.68,0,0,1,45.1,10H26.27c-1.57,0-2.85.93-3.83,2.77l-11,20.48A11.94,11.94,0,0,0,10.18,39a12.87,12.87,0,0,0,1.41,6.13L22.06,65.24A5,5,0,0,0,26.89,68.35Zm45.58,5V5a4.61,4.61,0,0,1,1.44-3.42A4.83,4.83,0,0,1,77.42.12a4.77,4.77,0,0,1,3.5,1.44,4.77,4.77,0,0,1,1.44,3.5V30l8-5.18q5.41-3.4,9.65-3.41h6.13a14.26,14.26,0,0,1,10.42,4.33A14.89,14.89,0,0,1,121,36.26l1.24,37a4.53,4.53,0,0,1-1.42,3.5,4.87,4.87,0,0,1-3.53,1.44,4.58,4.58,0,0,1-3.47-1.5,5.08,5.08,0,0,1-1.47-3.44l-1.24-37.15a5,5,0,0,0-1.53-3.48,4.82,4.82,0,0,0-3.53-1.47h-5.54a7.66,7.66,0,0,0-4.12,1.47L82.36,41.86V73.3a4.95,4.95,0,1,1-9.89,0Zm87.68-30.74h19.4a22.06,22.06,0,0,1,4.6.71l-.12-7a4.92,4.92,0,0,0-4.95-4.94H160.26a5,5,0,0,1-5-4.95,4.93,4.93,0,0,1,5-4.94h18.8a14.31,14.31,0,0,1,10.47,4.3A14.89,14.89,0,0,1,194,36.26l1.24,37a4.72,4.72,0,0,1-1.47,3.5,4.82,4.82,0,0,1-3.48,1.44,4.94,4.94,0,0,1-3.59-1.44,4.72,4.72,0,0,1-1.47-3.5l-8.37,4.94H160.15a14.89,14.89,0,0,1-15-14.95V57.52a15,15,0,0,1,15-15Zm24.74,19.26-.3-4.18a5,5,0,0,0-1.47-3.54,4.74,4.74,0,0,0-3.48-1.41H160.13a4.92,4.92,0,0,0-4.94,5v5.53a5,5,0,0,0,4.94,4.94h14ZM253,78.24h-9.89a14.48,14.48,0,0,1-10.54-4.36,14.18,14.18,0,0,1-4.41-10.48V31.32h-5.07a4.82,4.82,0,0,1-3.5-1.41,5,5,0,0,1,0-7,4.77,4.77,0,0,1,3.5-1.44h5.19V9.3a4.89,4.89,0,0,1,8.38-3.47,4.68,4.68,0,0,1,1.51,3.47V21.43H258a5,5,0,0,1,5,4.94,4.73,4.73,0,0,1-1.47,3.51A4.81,4.81,0,0,1,258,31.32H238V63.4a4.71,4.71,0,0,0,1.5,3.48,4.92,4.92,0,0,0,3.56,1.47h9.66q3.93,0,5.24-4.27c.86-2.84,2.53-4.27,5-4.27a4.69,4.69,0,0,1,3.56,1.45,5,5,0,0,1,1.38,3.62q0,4.47-4.2,8.92A14.17,14.17,0,0,1,253,78.24Zm38.09-4.94V26.37a5,5,0,0,1,1.44-3.56,4.88,4.88,0,0,1,7,0A5,5,0,0,1,301,26.37v6.19L309,25.67q5-4.25,9.77-4.24H326a14.27,14.27,0,0,1,10.48,4.36,14.28,14.28,0,0,1,4.36,10.47v2.65a4.93,4.93,0,0,1-1.45,3.6A4.93,4.93,0,0,1,331,39V36.26a4.93,4.93,0,0,0-5-4.94h-6.42q-2.06,0-4.59,2.18L301,45.68V73.3a4.72,4.72,0,0,1-1.47,3.5,4.93,4.93,0,0,1-8.42-3.5ZM413.69,40V52a5,5,0,0,1-4.94,5h-35v2.88a5.35,5.35,0,0,0,2.17,4.3l2.89,2.41a7.42,7.42,0,0,0,4.47,1.83h25.44a4.8,4.8,0,0,1,3.47,1.44,5,5,0,0,1-3.47,8.45H382.67a15.19,15.19,0,0,1-5.45-1.09A14.07,14.07,0,0,1,373,74.88L368.6,71a12.56,12.56,0,0,1-3.45-4.59A12.88,12.88,0,0,1,363.77,61V38.33a13.63,13.63,0,0,1,1.5-5.24,13.61,13.61,0,0,1,3.8-5.13l4.12-3.23a13.94,13.94,0,0,1,9-3.3h13.9q5.24,0,9.89,4.36l3.71,3.53Q413.7,32.91,413.69,40Zm-39.8-.76v7.65h30V40a5.31,5.31,0,0,0-1.71-4.24l-2.88-2.53a6.73,6.73,0,0,0-4-1.82H382.9A6.34,6.34,0,0,0,378.72,33l-2.88,2.41A4.58,4.58,0,0,0,373.89,39.27ZM486.52,40V52a5,5,0,0,1-4.95,5h-35v2.88a5.37,5.37,0,0,0,2.18,4.3l2.88,2.41a7.42,7.42,0,0,0,4.48,1.83h25.43a5,5,0,0,1,4.95,5A4.72,4.72,0,0,1,485,76.77a4.78,4.78,0,0,1-3.44,1.47H455.49A15.23,15.23,0,0,1,450,77.15a14.2,14.2,0,0,1-4.21-2.27L441.42,71A12.65,12.65,0,0,1,438,66.41,12.76,12.76,0,0,1,436.59,61V38.33a13.63,13.63,0,0,1,1.5-5.24,13.61,13.61,0,0,1,3.8-5.13L446,24.73a14,14,0,0,1,9-3.3h13.89q5.25,0,9.89,4.36l3.71,3.53Q486.52,32.91,486.52,40Zm-39.8-.76v7.65h30V40a5.33,5.33,0,0,0-1.7-4.24l-2.89-2.53a6.71,6.71,0,0,0-4-1.82H455.73A6.3,6.3,0,0,0,451.55,33l-2.89,2.41A4.6,4.6,0,0,0,446.72,39.27Z"/></g></g></svg>